<mxfile host="app.diagrams.net" modified="2023-01-09T02:50:15.322Z" agent="5.0 (X11)" etag="FO70CgGc9nNReF4rLI8x" version="20.8.3" type="github">
  <diagram id="AAwb4T2142zoHm5ZWycx" name="Página-1">
    <mxGraphModel dx="1434" dy="790" grid="1" gridSize="10" guides="1" tooltips="1" connect="1" arrows="1" fold="1" page="1" pageScale="1" pageWidth="827" pageHeight="1169" math="0" shadow="0">
      <root>
        <mxCell id="0" />
        <mxCell id="1" parent="0" />
        <mxCell id="vaUc1oacc2Hxjzp5KE7d-3" style="edgeStyle=isometricEdgeStyle;rounded=0;orthogonalLoop=1;jettySize=auto;html=1;exitX=1;exitY=0.5;exitDx=0;exitDy=0;fontColor=#FFFFFF;elbow=vertical;entryX=0;entryY=0.5;entryDx=0;entryDy=0;" parent="1" source="vaUc1oacc2Hxjzp5KE7d-1" target="vaUc1oacc2Hxjzp5KE7d-2" edge="1">
          <mxGeometry relative="1" as="geometry" />
        </mxCell>
        <mxCell id="vaUc1oacc2Hxjzp5KE7d-1" value="Obtencion y Lectura de CSV" style="rounded=0;whiteSpace=wrap;html=1;fillColor=#AB4F77;fontColor=#FFFFFF;" parent="1" vertex="1">
          <mxGeometry x="110" y="120" width="120" height="60" as="geometry" />
        </mxCell>
        <mxCell id="vaUc1oacc2Hxjzp5KE7d-2" value="Exploración de CSV" style="rounded=0;whiteSpace=wrap;html=1;fillColor=#AB4F77;fontColor=#FFFFFF;" parent="1" vertex="1">
          <mxGeometry x="300" y="120" width="120" height="60" as="geometry" />
        </mxCell>
        <mxCell id="vaUc1oacc2Hxjzp5KE7d-4" value="Eliminación de columnas" style="rounded=0;whiteSpace=wrap;html=1;fillColor=#AB4F77;fontColor=#FFFFFF;" parent="1" vertex="1">
          <mxGeometry x="490" y="120" width="120" height="60" as="geometry" />
        </mxCell>
        <mxCell id="vaUc1oacc2Hxjzp5KE7d-7" style="edgeStyle=isometricEdgeStyle;rounded=0;orthogonalLoop=1;jettySize=auto;html=1;exitX=1;exitY=0.5;exitDx=0;exitDy=0;fontColor=#FFFFFF;elbow=vertical;entryX=0;entryY=0.5;entryDx=0;entryDy=0;" parent="1" source="vaUc1oacc2Hxjzp5KE7d-2" target="vaUc1oacc2Hxjzp5KE7d-4" edge="1">
          <mxGeometry relative="1" as="geometry">
            <mxPoint x="430" y="230.1" as="sourcePoint" />
            <mxPoint x="500" y="230.1" as="targetPoint" />
          </mxGeometry>
        </mxCell>
        <mxCell id="vaUc1oacc2Hxjzp5KE7d-8" value="Filtrar años del 2015 al 2022" style="rounded=0;whiteSpace=wrap;html=1;fillColor=#AB4F77;fontColor=#FFFFFF;" parent="1" vertex="1">
          <mxGeometry x="680" y="120" width="120" height="60" as="geometry" />
        </mxCell>
        <mxCell id="vaUc1oacc2Hxjzp5KE7d-9" style="edgeStyle=isometricEdgeStyle;rounded=0;orthogonalLoop=1;jettySize=auto;html=1;exitX=1;exitY=0.5;exitDx=0;exitDy=0;fontColor=#FFFFFF;elbow=vertical;entryX=0;entryY=0.5;entryDx=0;entryDy=0;" parent="1" edge="1">
          <mxGeometry relative="1" as="geometry">
            <mxPoint x="610" y="150" as="sourcePoint" />
            <mxPoint x="680" y="150" as="targetPoint" />
          </mxGeometry>
        </mxCell>
        <mxCell id="vaUc1oacc2Hxjzp5KE7d-16" style="edgeStyle=isometricEdgeStyle;rounded=0;orthogonalLoop=1;jettySize=auto;html=1;exitX=0;exitY=0.5;exitDx=0;exitDy=0;entryX=1;entryY=0.5;entryDx=0;entryDy=0;fontColor=#000000;elbow=vertical;" parent="1" source="vaUc1oacc2Hxjzp5KE7d-10" target="vaUc1oacc2Hxjzp5KE7d-15" edge="1">
          <mxGeometry relative="1" as="geometry" />
        </mxCell>
        <mxCell id="vaUc1oacc2Hxjzp5KE7d-10" value="Separar &quot;fecha_hecho&quot; en dia y hora, elinarla despues" style="rounded=0;whiteSpace=wrap;html=1;fontColor=#FFFFFF;fillColor=#AB4F77;" parent="1" vertex="1">
          <mxGeometry x="680" y="240" width="120" height="60" as="geometry" />
        </mxCell>
        <mxCell id="vaUc1oacc2Hxjzp5KE7d-11" value="" style="endArrow=classic;html=1;rounded=0;fontColor=#FFFFFF;entryX=0.5;entryY=0;entryDx=0;entryDy=0;edgeStyle=isometricEdgeStyle;elbow=vertical;exitX=0.5;exitY=1;exitDx=0;exitDy=0;" parent="1" source="vaUc1oacc2Hxjzp5KE7d-8" target="vaUc1oacc2Hxjzp5KE7d-10" edge="1">
          <mxGeometry width="50" height="50" relative="1" as="geometry">
            <mxPoint x="800" y="150" as="sourcePoint" />
            <mxPoint x="930" y="210" as="targetPoint" />
          </mxGeometry>
        </mxCell>
        <mxCell id="vaUc1oacc2Hxjzp5KE7d-13" style="edgeStyle=isometricEdgeStyle;rounded=0;orthogonalLoop=1;jettySize=auto;html=1;exitX=1;exitY=0.5;exitDx=0;exitDy=0;entryX=0;entryY=0.5;entryDx=0;entryDy=0;fontColor=#FFFFFF;elbow=vertical;" parent="1" source="vaUc1oacc2Hxjzp5KE7d-12" target="vaUc1oacc2Hxjzp5KE7d-1" edge="1">
          <mxGeometry relative="1" as="geometry" />
        </mxCell>
        <mxCell id="vaUc1oacc2Hxjzp5KE7d-12" value="" style="ellipse;whiteSpace=wrap;html=1;aspect=fixed;fontColor=#FFFFFF;fillColor=none;strokeColor=#4A3159;strokeWidth=3;" parent="1" vertex="1">
          <mxGeometry x="20" y="130" width="50" height="50" as="geometry" />
        </mxCell>
        <mxCell id="vaUc1oacc2Hxjzp5KE7d-14" value="inicio" style="text;html=1;strokeColor=none;fillColor=none;align=center;verticalAlign=middle;whiteSpace=wrap;rounded=0;fontColor=#000000;" parent="1" vertex="1">
          <mxGeometry x="15" y="180" width="60" height="30" as="geometry" />
        </mxCell>
        <mxCell id="vaUc1oacc2Hxjzp5KE7d-18" style="edgeStyle=isometricEdgeStyle;rounded=0;orthogonalLoop=1;jettySize=auto;html=1;exitX=0;exitY=0.5;exitDx=0;exitDy=0;entryX=1;entryY=0.5;entryDx=0;entryDy=0;fontColor=#000000;elbow=vertical;" parent="1" source="vaUc1oacc2Hxjzp5KE7d-15" edge="1">
          <mxGeometry relative="1" as="geometry">
            <mxPoint x="420" y="270" as="targetPoint" />
          </mxGeometry>
        </mxCell>
        <mxCell id="vaUc1oacc2Hxjzp5KE7d-15" value="Ordenar columnas" style="rounded=0;whiteSpace=wrap;html=1;fillColor=#AB4F77;fontColor=#FFFFFF;" parent="1" vertex="1">
          <mxGeometry x="490" y="240" width="120" height="60" as="geometry" />
        </mxCell>
        <mxCell id="vaUc1oacc2Hxjzp5KE7d-27" style="edgeStyle=isometricEdgeStyle;rounded=0;orthogonalLoop=1;jettySize=auto;html=1;exitX=0.5;exitY=1;exitDx=0;exitDy=0;entryX=0.5;entryY=0;entryDx=0;entryDy=0;fontColor=#000000;elbow=vertical;" parent="1" source="vaUc1oacc2Hxjzp5KE7d-19" target="vaUc1oacc2Hxjzp5KE7d-23" edge="1">
          <mxGeometry relative="1" as="geometry" />
        </mxCell>
        <mxCell id="vaUc1oacc2Hxjzp5KE7d-19" value="Conversión de hora a tipo Time" style="rounded=0;whiteSpace=wrap;html=1;fillColor=#AB4F77;fontColor=#FFFFFF;" parent="1" vertex="1">
          <mxGeometry x="120" y="240" width="120" height="60" as="geometry" />
        </mxCell>
        <mxCell id="vaUc1oacc2Hxjzp5KE7d-26" style="edgeStyle=isometricEdgeStyle;rounded=0;orthogonalLoop=1;jettySize=auto;html=1;fontColor=#000000;elbow=vertical;entryX=1;entryY=0.5;entryDx=0;entryDy=0;" parent="1" target="vaUc1oacc2Hxjzp5KE7d-19" edge="1">
          <mxGeometry relative="1" as="geometry">
            <mxPoint x="300" y="270" as="sourcePoint" />
            <mxPoint x="310" y="320" as="targetPoint" />
          </mxGeometry>
        </mxCell>
        <mxCell id="vaUc1oacc2Hxjzp5KE7d-21" value="Modificar el formato de la fecha a tipo Date" style="rounded=0;whiteSpace=wrap;html=1;fillColor=#AB4F77;fontColor=#FFFFFF;" parent="1" vertex="1">
          <mxGeometry x="300" y="240" width="120" height="60" as="geometry" />
        </mxCell>
        <mxCell id="vaUc1oacc2Hxjzp5KE7d-29" style="edgeStyle=isometricEdgeStyle;rounded=0;orthogonalLoop=1;jettySize=auto;html=1;exitX=1;exitY=0.5;exitDx=0;exitDy=0;entryX=0;entryY=0.5;entryDx=0;entryDy=0;fontColor=#000000;elbow=vertical;" parent="1" source="vaUc1oacc2Hxjzp5KE7d-23" target="vaUc1oacc2Hxjzp5KE7d-28" edge="1">
          <mxGeometry relative="1" as="geometry" />
        </mxCell>
        <mxCell id="vaUc1oacc2Hxjzp5KE7d-23" value="Borrar registros con longitud o latidud faltante" style="rounded=0;whiteSpace=wrap;html=1;fillColor=#AB4F77;fontColor=#FFFFFF;" parent="1" vertex="1">
          <mxGeometry x="120" y="350" width="120" height="60" as="geometry" />
        </mxCell>
        <mxCell id="vaUc1oacc2Hxjzp5KE7d-31" style="edgeStyle=isometricEdgeStyle;rounded=0;orthogonalLoop=1;jettySize=auto;html=1;exitX=1;exitY=0.5;exitDx=0;exitDy=0;entryX=0;entryY=0.5;entryDx=0;entryDy=0;fontColor=#000000;elbow=vertical;" parent="1" source="vaUc1oacc2Hxjzp5KE7d-28" target="vaUc1oacc2Hxjzp5KE7d-30" edge="1">
          <mxGeometry relative="1" as="geometry" />
        </mxCell>
        <mxCell id="vaUc1oacc2Hxjzp5KE7d-28" value="Imputar datos para edad y sexo " style="rounded=0;whiteSpace=wrap;html=1;fillColor=#AB4F77;fontColor=#FFFFFF;" parent="1" vertex="1">
          <mxGeometry x="300" y="350" width="120" height="60" as="geometry" />
        </mxCell>
        <mxCell id="vaUc1oacc2Hxjzp5KE7d-34" style="edgeStyle=isometricEdgeStyle;rounded=0;orthogonalLoop=1;jettySize=auto;html=1;exitX=1;exitY=0.5;exitDx=0;exitDy=0;entryX=0;entryY=0.5;entryDx=0;entryDy=0;fontColor=#000000;elbow=vertical;" parent="1" source="vaUc1oacc2Hxjzp5KE7d-30" target="vaUc1oacc2Hxjzp5KE7d-32" edge="1">
          <mxGeometry relative="1" as="geometry" />
        </mxCell>
        <mxCell id="vaUc1oacc2Hxjzp5KE7d-30" value="Eliminar redundancia de datos" style="rounded=0;whiteSpace=wrap;html=1;fillColor=#AB4F77;fontColor=#FFFFFF;" parent="1" vertex="1">
          <mxGeometry x="490" y="350" width="120" height="60" as="geometry" />
        </mxCell>
        <mxCell id="vaUc1oacc2Hxjzp5KE7d-36" style="edgeStyle=isometricEdgeStyle;rounded=0;orthogonalLoop=1;jettySize=auto;html=1;exitX=0.5;exitY=1;exitDx=0;exitDy=0;entryX=0.5;entryY=0;entryDx=0;entryDy=0;fontColor=#000000;elbow=vertical;" parent="1" source="vaUc1oacc2Hxjzp5KE7d-32" target="vaUc1oacc2Hxjzp5KE7d-35" edge="1">
          <mxGeometry relative="1" as="geometry" />
        </mxCell>
        <mxCell id="vaUc1oacc2Hxjzp5KE7d-32" value="Cambiar tipo de dato de los atributodos numerales" style="rounded=0;whiteSpace=wrap;html=1;fillColor=#AB4F77;fontColor=#FFFFFF;" parent="1" vertex="1">
          <mxGeometry x="680" y="350" width="120" height="60" as="geometry" />
        </mxCell>
        <mxCell id="vaUc1oacc2Hxjzp5KE7d-35" value="Exportar dataframe a CSV" style="rounded=0;whiteSpace=wrap;html=1;fillColor=#AB4F77;fontColor=#FFFFFF;" parent="1" vertex="1">
          <mxGeometry x="680" y="475" width="120" height="60" as="geometry" />
        </mxCell>
        <mxCell id="vaUc1oacc2Hxjzp5KE7d-42" style="edgeStyle=isometricEdgeStyle;rounded=0;orthogonalLoop=1;jettySize=auto;html=1;entryX=1;entryY=0.5;entryDx=0;entryDy=0;fontColor=#000000;elbow=vertical;exitX=0;exitY=0.5;exitDx=0;exitDy=0;" parent="1" source="vaUc1oacc2Hxjzp5KE7d-35" target="vaUc1oacc2Hxjzp5KE7d-39" edge="1">
          <mxGeometry relative="1" as="geometry">
            <mxPoint x="480" y="520" as="sourcePoint" />
          </mxGeometry>
        </mxCell>
        <mxCell id="vaUc1oacc2Hxjzp5KE7d-39" value="" style="ellipse;whiteSpace=wrap;html=1;aspect=fixed;fontColor=#FFFFFF;fillColor=none;strokeColor=#4A3159;strokeWidth=3;" parent="1" vertex="1">
          <mxGeometry x="565" y="480" width="50" height="50" as="geometry" />
        </mxCell>
        <mxCell id="vaUc1oacc2Hxjzp5KE7d-40" value="Fin" style="text;html=1;strokeColor=none;fillColor=none;align=center;verticalAlign=middle;whiteSpace=wrap;rounded=0;fontColor=#000000;" parent="1" vertex="1">
          <mxGeometry x="560" y="530" width="60" height="30" as="geometry" />
        </mxCell>
      </root>
    </mxGraphModel>
  </diagram>
</mxfile>
